<?xml version="1.0" encoding="utf-8"?>
<!-- Generator: Adobe Illustrator 19.2.0, SVG Export Plug-In . SVG Version: 6.00 Build 0)  -->
<svg version="1.1" id="Layer_1" xmlns="http://www.w3.org/2000/svg" xmlns:xlink="http://www.w3.org/1999/xlink" x="0px" y="0px"
	 viewBox="0 0 100 24" style="enable-background:new 0 0 100 24;" xml:space="preserve">
<style type="text/css">
	.st0{fill:#F2BE1A;}
	.st1{fill:#FFCC32;}
	.st2{fill:#FFD549;}
	.st3{fill:#F48580;}
	.st4{fill:#F04E4C;}
	.st5{fill:#F15B5B;}
	.st6{fill:#FFEA82;}
	.st7{fill:#94D6DA;}
	.st8{fill:#DED263;}
	.st9{fill:#E31C48;}
	.st10{fill:#CF1C3F;}
	.st11{fill:#EE3135;}
	.st12{fill:#414042;}
</style>
<g>
	<polygon class="st0" points="11.76601,4.8201 17.64701,4.3771 17.64701,19.1801 11.76601,19.1801 	"/>
	<polygon class="st1" points="17.64701,20.4631 11.76601,19.1761 17.64701,19.1761 	"/>
	<path class="st2" d="M17.30201,0.3201c0.188-0.161,0.345-0.086,0.345,0.169v3.347l-5.881,1.201L17.30201,0.3201z"/>
	<path class="st3" d="M6.23001,0.3201c-0.192-0.161-0.345-0.086-0.345,0.173v3.401l5.881,1.224L6.23001,0.3201z"/>
	<polygon class="st4" points="11.76601,4.9421 5.83001,3.6701 5.83001,4.9421 	"/>
	<path class="st5" d="M2.42101,2.9961c-0.255-0.055-0.459,0.118-0.459,0.377v1.569h4.041v-1.224L2.42101,2.9961z"/>
	<path class="st6" d="M21.11601,2.9961c0.251-0.055,0.455,0.118,0.455,0.377v1.569h-4.064v-1.224L21.11601,2.9961z"/>
	<path class="st7" d="M23.01501,4.8201c0.283,0.004,0.518,0.2,0.518,0.443v13.473c0,0.243-0.235,0.439-0.518,0.439l0,0h-1.734
		V4.8201H23.01501z"/>
	<rect x="17.43601" y="4.8201" class="st8" width="4.135" height="14.355"/>
	<rect x="1.96201" y="4.8201" class="st9" width="4.241" height="14.355"/>
	<path class="st10" d="M0.54901,4.8201c-0.302,0.004-0.549,0.2-0.549,0.443v13.473c0,0.243,0.247,0.439,0.549,0.439h1.832V4.8201
		H0.54901z"/>
	<rect x="1.96201" y="4.8201" class="st9" width="3.923" height="14.355"/>
	<polygon class="st4" points="5.88501,20.3291 11.76601,19.1761 5.88501,19.1761 	"/>
	<polygon class="st4" points="11.76601,4.8201 5.88501,3.6701 5.88501,4.8201 	"/>
	<rect x="5.88501" y="4.8201" class="st11" width="5.881" height="14.355"/>
	<path class="st5" d="M2.40501,2.9961c-0.244-0.047-0.443,0.11-0.443,0.354v1.475h3.923v-1.155L2.40501,2.9961z"/>
	<path class="st3" d="M6.23001,0.3161c-0.192-0.153-0.345-0.082-0.345,0.161v3.193l5.881,1.15L6.23001,0.3161z"/>
	<path class="st10" d="M0.45101,4.8201c-0.247,0.004-0.451,0.2-0.451,0.443v13.473c0,0.243,0.204,0.439,0.455,0.439h1.507V4.8201
		H0.45101z"/>
	<path class="st5" d="M1.96201,19.1761v1.476c0,0.243,0.2,0.403,0.443,0.356l3.476-0.679v-1.153H1.96201z"/>
	<path class="st3" d="M6.23001,23.6841l5.536-4.508l-5.881,1.153v3.193C5.88501,23.7661,6.03801,23.8371,6.23001,23.6841"/>
	<rect x="17.64701" y="4.8201" class="st8" width="3.923" height="14.355"/>
	<polygon class="st1" points="17.64701,20.3291 11.76601,19.1761 17.64701,19.1761 	"/>
	<polygon class="st1" points="11.76601,4.8201 17.64701,3.6701 17.64701,4.8201 	"/>
	<rect x="11.76601" y="4.8201" class="st0" width="5.881" height="14.355"/>
	<path class="st6" d="M21.13101,2.9961c0.244-0.051,0.439,0.11,0.439,0.354v1.471h-3.923v-1.15L21.13101,2.9961z"/>
	<path class="st2" d="M17.30201,0.3161c0.188-0.153,0.345-0.082,0.345,0.161v3.193l-5.881,1.15L17.30201,0.3161z"/>
	<path class="st7" d="M23.07801,4.8201c0.251,0.004,0.455,0.2,0.455,0.443v13.473c0,0.243-0.204,0.439-0.455,0.439l0,0h-1.507
		V4.8201H23.07801z"/>
	<path class="st6" d="M21.57101,19.1761v1.476c0,0.243-0.196,0.403-0.439,0.356l-3.484-0.679v-1.153H21.57101z"/>
	<path class="st2" d="M17.30201,23.6841l-5.536-4.508l5.881,1.153v3.193C17.64701,23.7661,17.49101,23.8371,17.30201,23.6841"/>
	<rect x="1.96201" y="4.8201" class="st9" width="3.923" height="14.355"/>
	<polygon class="st4" points="5.88501,20.3291 11.76601,19.1761 5.88501,19.1761 	"/>
	<polygon class="st4" points="11.76601,4.8201 5.88501,3.6701 5.88501,4.8201 	"/>
	<rect x="5.88501" y="4.8201" class="st11" width="5.881" height="14.355"/>
	<path class="st5" d="M2.40501,2.9961c-0.244-0.047-0.443,0.11-0.443,0.354v1.475h3.923v-1.155L2.40501,2.9961z"/>
	<path class="st3" d="M6.23001,0.3161c-0.192-0.153-0.345-0.082-0.345,0.161v3.193l5.881,1.15L6.23001,0.3161z"/>
	<path class="st10" d="M0.45101,4.8201c-0.247,0.004-0.451,0.2-0.451,0.443v13.473c0,0.243,0.204,0.439,0.455,0.439h1.507V4.8201
		H0.45101z"/>
	<path class="st5" d="M1.96201,19.1761v1.476c0,0.243,0.2,0.403,0.443,0.356l3.476-0.679v-1.153H1.96201z"/>
	<path class="st3" d="M6.23001,23.6841l5.536-4.508l-5.881,1.153v3.193C5.88501,23.7661,6.03801,23.8371,6.23001,23.6841"/>
	<rect x="17.64701" y="4.8201" class="st8" width="3.923" height="14.355"/>
	<polygon class="st1" points="17.64701,20.3291 11.76601,19.1761 17.64701,19.1761 	"/>
	<polygon class="st1" points="11.76601,4.8201 17.64701,3.6701 17.64701,4.8201 	"/>
	<rect x="11.76601" y="4.8201" class="st0" width="5.881" height="14.355"/>
	<path class="st6" d="M21.13101,2.9961c0.244-0.051,0.439,0.11,0.439,0.354v1.471h-3.923v-1.15L21.13101,2.9961z"/>
	<path class="st2" d="M17.30201,0.3161c0.188-0.153,0.345-0.082,0.345,0.161v3.193l-5.881,1.15L17.30201,0.3161z"/>
	<path class="st7" d="M23.07801,4.8201c0.251,0.004,0.455,0.2,0.455,0.443v13.473c0,0.243-0.204,0.439-0.455,0.439l0,0h-1.507
		V4.8201H23.07801z"/>
	<path class="st6" d="M21.57101,19.1761v1.476c0,0.243-0.196,0.403-0.439,0.356l-3.484-0.679v-1.153H21.57101z"/>
	<path class="st2" d="M17.30201,23.6841l-5.536-4.508l5.881,1.153v3.193C17.64701,23.7661,17.49101,23.8371,17.30201,23.6841"/>
	<path class="st12" d="M40.12101,9.5171c-2.041,0-3.704,1.707-3.704,3.802c0,2.052,1.679,3.723,3.751,3.723
		c1.491,0,2.833-0.871,3.437-2.213c0.023-0.055,0.016-0.113-0.016-0.16c-0.031-0.052-0.078-0.076-0.141-0.076h-0.91
		c-0.062,0-0.118,0.032-0.149,0.083c-0.463,0.796-1.279,1.251-2.236,1.251c-1.248,0-2.354-0.957-2.519-2.173l-0.008-0.02h6.121
		c0.086,0,0.165-0.075,0.165-0.169v-0.258C43.91101,11.1801,42.23901,9.5171,40.12101,9.5171 M40.10501,10.6431
		c1.271,0,2.354,0.835,2.621,2.032v0.015h-5.085v-0.015C37.89301,11.5141,38.95201,10.6431,40.10501,10.6431"/>
	<path class="st12" d="M72.05801,9.5171c-2.104,0-3.806,1.695-3.806,3.774c0,2.063,1.694,3.75,3.774,3.75
		c2.087,0,3.782-1.714,3.782-3.813C75.80901,11.1841,74.12101,9.5171,72.05801,9.5171 M72.02601,15.8491
		c-1.42101,0-2.57401-1.157-2.57401-2.586c0-1.408,1.161-2.553,2.59-2.553c1.412,0,2.558,1.153,2.558,2.57
		C74.60001,14.6951,73.44601,15.8491,72.02601,15.8491"/>
	<path class="st12" d="M53.16201,10.7881c0.095,0,0.173-0.078,0.173-0.168v-0.812c0-0.094-0.07-0.172-0.173-0.172h-1.474v0.004
		c-0.377,0-0.683,0.298-0.691,0.667v0.471l-0.032-0.029c-0.652-0.809-1.562-1.232-2.62-1.232c-1.318,0-2.543,0.675-3.124,1.714
		l-0.047,0.071c-0.267,0.482-0.557,0.985-0.557,1.969c-0.023,0.718,0.165,1.393,0.573,2.076c0.635,1.043,1.844,1.694,3.163,1.694
		c1.043,0,1.969-0.432,2.612-1.216l0.031-0.027v0.396c0.009,0.36,0.299,0.65,0.659,0.663h1.507c0.103,0,0.173-0.075,0.173-0.169
		v-0.816c0-0.09-0.07-0.165-0.173-0.165h-0.973v-4.919H53.16201L53.16201,10.7881z M48.39201,15.8641
		c-1.396,0-2.574-1.177-2.574-2.573c0-1.424,1.178-2.582,2.621-2.582c1.412,0,2.566,1.146,2.566,2.553
		C51.00501,14.7231,49.85101,15.8641,48.39201,15.8641"/>
	<path class="st12" d="M58.73301,9.5831c-0.031-0.027-0.094-0.043-0.173-0.059c-0.125-0.016-0.235-0.02-0.376-0.008
		c-0.723,0.047-1.35,0.542-1.742,1.012l-0.015,0.032v-0.251c-0.016-0.369-0.322-0.675-0.69-0.675l0,0h-1.507
		c-0.086,0-0.165,0.079-0.165,0.172v0.809c0,0.094,0.079,0.172,0.165,0.172h0.988v4.916h-0.988c-0.086,0-0.165,0.075-0.165,0.169
		v0.816c0,0.094,0.079,0.169,0.165,0.169h3.186c0.087,0,0.157-0.075,0.157-0.169v-0.816c0-0.09-0.07-0.165-0.157-0.165h-0.988
		v-2.573c0-1.232,0.596-2.589,2.197-2.448c0.094,0.008,0.156-0.078,0.156-0.165v-0.816
		C58.78001,9.6581,58.76501,9.6151,58.73301,9.5831"/>
	<path class="st12" d="M99.83501,9.6341h-1.467c-0.228,0.035-0.408,0.176-0.511,0.369l-0.313,0.785l0,0l-1.812,4.406l-1.695-4.406
		l0,0l-0.29-0.745l0,0c-0.094-0.212-0.29-0.369-0.533-0.408h-1.483c-0.094,0-0.165,0.079-0.165,0.168v0.812
		c0,0.094,0.071,0.168,0.165,0.168h0.988l2.354,5.952l-0.354,0.902l0,0c-0.22,0.502-0.619,0.809-1.07401,0.809
		c-0.354,0-0.62-0.142-0.754-0.22c-0.031-0.023-0.07-0.031-0.109-0.016c-0.04,0.008-0.071,0.035-0.08701,0.07l-0.313,0.714
		c-0.031,0.062-0.016,0.134,0.047,0.165c0.173,0.109,0.644,0.349,1.271,0.349c0.973,0,1.727-0.541,2.134-1.518l0,0l0.031-0.063
		c0,0,0,0,0-0.004l2.982-7.136h0.988c0.095,0,0.165-0.078,0.165-0.172v-0.809C100.00001,9.7131,99.93001,9.6341,99.83501,9.6341"/>
	<path class="st12" d="M90.60001,15.7071h-1.452v-4.919h1.35c0.095,0,0.165-0.078,0.165-0.172v-0.809
		c0-0.094-0.07-0.172-0.165-0.172h-1.35v-2.307c0-0.094-0.078-0.168-0.172-0.168h-0.863c-0.095,0-0.173,0.074-0.173,0.168v2.307
		h-1.153c-0.095,0-0.165,0.079-0.165,0.172v0.809c0,0.094,0.07,0.172,0.165,0.172h1.153v5.335c0.031,0.408,0.361,0.734,0.769,0.734
		h1.891c0.094,0,0.165-0.075,0.165-0.169v-0.816C90.76501,15.7781,90.69301,15.7071,90.60001,15.7071"/>
	<path class="st12" d="M84.36101,8.6531h0.863c0.094,0,0.173-0.075,0.173-0.165v-1.162c0-0.094-0.07899-0.168-0.173-0.168h-0.863
		c-0.094,0-0.173,0.074-0.173,0.168v1.162C84.188,8.5831,84.26801,8.6531,84.36101,8.6531"/>
	<path class="st12" d="M86.38601,15.7071h-0.988v-5.398c-0.016-0.373-0.314-0.675-0.691-0.675H83.2
		c-0.087,0-0.165,0.079-0.165,0.172v0.809c0,0.094,0.078,0.172,0.165,0.172h0.988v4.919h-1.004c-0.095,0-0.173,0.071-0.173,0.165
		v0.816c0,0.094,0.078,0.169,0.173,0.169h3.201c0.086,0,0.15701-0.075,0.15701-0.169v-0.815
		C86.54301,15.7781,86.47201,15.7071,86.38601,15.7071"/>
	<path class="st12" d="M79.842,12.7571c-0.832-0.282-1.703-0.572-1.703-1.263c0-0.522,0.50999-0.863,1.311-0.863
		c0.753,0,1.303,0.314,1.303,0.737v0.361c0,0.059,0.047,0.106,0.10201,0.106h1.028c0.062,0,0.109-0.047,0.109-0.106v-0.757
		c0-1.056-1.569-1.444-2.558-1.444c-1.357,0-2.73,0.612-2.73,1.981c0,1.243,1.051,1.726,2.307,2.181l0.204,0.071
		c0.949,0.325,1.632,0.557,1.632,1.231c0,0.55-0.596,0.918-1.49,0.918c-0.816,0-1.68-0.282-1.68-0.895v-0.36
		c0-0.06-0.047-0.103-0.11-0.103h-1.027c-0.055,0-0.103,0.043-0.103,0.103v0.659c0,1.074,1.46,1.718,2.88,1.718
		c1.797,0,2.959-0.831,2.959-2.11C82.274,13.6471,81.12801,13.1731,79.842,12.7571"/>
	<path class="st12" d="M67.978,15.7071h-0.989v-2.903c0-0.933-0.251-1.569-0.4-1.867c-0.50999-1.04-1.781-1.42-2.519-1.42
		c-0.816,0-1.616,0.345-2.118,0.918l-0.024,0.027v-0.172c-0.023-0.361-0.321-0.655-0.683-0.655l0,0h-1.506
		c-0.095,0-0.173,0.079-0.173,0.172v0.809c0,0.094,0.078,0.172,0.173,0.172h0.988v4.919h-0.988c-0.095,0-0.173,0.071-0.173,0.165
		v0.816c0,0.094,0.078,0.169,0.173,0.169h3.17c0.094,0,0.173-0.075,0.173-0.169v-0.816c0-0.094-0.079-0.165-0.173-0.165h-0.981
		v-2.691c0-0.698,0.024-1.192,0.416-1.647c0.346-0.408,0.926-0.659,1.491-0.659c0.361,0,1.256,0.07,1.647,0.753
		c0.283,0.479,0.299,1.012,0.299,1.656v3.088c0.031,0.353,0.313,0.639,0.667,0.651h1.53c0.094,0,0.164-0.075,0.164-0.169v-0.817
		C68.14201,15.7781,68.07101,15.7071,67.978,15.7071"/>
	<path class="st12" d="M35.74201,14.1061h-0.949c-0.086,0-0.165,0.075-0.165,0.169v1.377h-2.73v-6.018v-1.275h1.02
		c0.094,0,0.172-0.074,0.172-0.168v-0.863c0-0.094-0.078-0.168-0.172-0.168h-1.664v0.004c-0.016,0-0.031-0.004-0.047-0.004h-1.617
		c-0.094,0-0.172,0.074-0.172,0.168v0.863c0,0.094,0.078,0.168,0.172,0.168h1.02v7.293h-1.02c-0.094,0-0.172,0.079-0.172,0.165
		v0.871c0,0.09,0.078,0.165,0.172,0.165h1.797h1.012h3.343c0.094,0,0.165-0.075,0.165-0.165v-2.413
		C35.90701,14.1861,35.83601,14.1061,35.74201,14.1061"/>
</g>
</svg>
